PathFileType	4	(X/Y/Z)	./resultDataOpenSim/trcMotMarkerGrf/sub10/qtm-05-04.trc
DataRate	CameraRate	NumFrames	NumMarkers	Units	OrigDataRate	OrigDataStartFrame	OrigNumFrames
250.000000	250.000000	10	24	m	250.000000	130	516
Frame#	Time	L.Toe.Tip			R.Toe.Tip			L.Ankle.Lat			R.Ankle.Lat			L.Ankle.Med			R.Ankle.Med			L.Heel			R.Heel			L.Knee.Lat			R.Knee.Lat			L.Knee.Med			R.Knee.Med			L.Thigh.Upper			R.Thigh.Upper			L.ASIS			R.ASIS			V.Sacral			L.Acromium			R.Acromium			C7			L.Elbow			R.Elbow			L.Wrist.Lat			R.Wrist.Lat
		X1	Y1	Z1	X2	Y2	Z2	X3	Y3	Z3	X4	Y4	Z4	X5	Y5	Z5	X6	Y6	Z6	X7	Y7	Z7	X8	Y8	Z8	X9	Y9	Z9	X10	Y10	Z10	X11	Y11	Z11	X12	Y12	Z12	X13	Y13	Z13	X14	Y14	Z14	X15	Y15	Z15	X16	Y16	Z16	X17	Y17	Z17	X18	Y18	Z18	X19	Y19	Z19	X20	Y20	Z20	X21	Y21	Z21	X22	Y22	Z22	X23	Y23	Z23	X24	Y24	Z24

130	0.516	-0.46227211	0.065675058	-0.14272033	-0.72886575	0.039654603	0.033631049	-0.58830566	0.11330477	-0.15056114	-0.87192855	0.054421287	0.062723072	-0.56727115	0.12822706	-0.068897841	-0.84839368	0.080763031	-0.020778378	-0.65025322	0.088996847	-0.097934535	-0.9201536	0.030845502	0.011890344	-0.48383398	0.48910245	-0.16545717	-0.75444005	0.44307876	0.10829348	-0.46246653	0.46276626	-0.046898687	-0.7442499	0.44582059	-0.020830379	-0.64123053	0.83188853	-0.21169089	-0.71937758	0.85642129	0.16583193	-0.60651884	0.93972588	-0.13829762	-0.63401841	0.94506654	0.1046518	-0.81778083	0.95437791	-0.045559879	-0.67652219	1.4157298	-0.17785842	-0.69271781	1.4074624	0.14499393	-0.76505197	1.4398782	-0.025498712	-0.79963223	1.0982153	-0.25163379	-0.71696535	1.0528763	0.1993938	-0.68561866	0.88372493	-0.27988134	-0.52983008	0.89198469	0.21587834
131	0.52	-0.44423086	0.064868587	-0.14128358	-0.7287903	0.039782756	0.033737486	-0.57150244	0.10906989	-0.15000581	-0.87191151	0.054496804	0.06256188	-0.55117122	0.12499887	-0.06824875	-0.8481836	0.080725238	-0.020888986	-0.63278066	0.083281235	-0.097321824	-0.92019592	0.030944339	0.011548853	-0.47715009	0.48803697	-0.16543301	-0.75389146	0.44258306	0.10825645	-0.45564439	0.46219094	-0.04665584	-0.74253527	0.44521151	-0.0211752	-0.63460008	0.83149307	-0.21158413	-0.71561532	0.85566854	0.16559783	-0.59993285	0.93909199	-0.13787882	-0.62947908	0.94420057	0.10495155	-0.81124438	0.9533652	-0.04611246	-0.67088696	1.4147006	-0.17782816	-0.68744882	1.4067062	0.14505751	-0.75955876	1.4390194	-0.025593425	-0.79624025	1.0981385	-0.25192151	-0.70932699	1.0518918	0.19956082	-0.6843132	0.88275069	-0.28115258	-0.51987449	0.89350364	0.21431776
132	0.524	-0.42622878	0.06407677	-0.13981388	-0.72882504	0.039862879	0.033743213	-0.55464376	0.10493733	-0.14953979	-0.87190566	0.054583938	0.062402823	-0.53492323	0.12190179	-0.067602233	-0.84797666	0.08070679	-0.021019587	-0.6152761	0.07780133	-0.096775676	-0.92023003	0.031007262	0.011358843	-0.47056164	0.48679034	-0.16541792	-0.75395897	0.44226952	0.10855736	-0.44891447	0.46142237	-0.046377971	-0.74062574	0.44463864	-0.021491205	-0.62805611	0.83100118	-0.2114866	-0.71178619	0.85487012	0.16530328	-0.59343178	0.93837342	-0.13750787	-0.62493635	0.9432959	0.10523963	-0.80453555	0.95207671	-0.046787115	-0.66522294	1.4136237	-0.17780686	-0.68212	1.4059082	0.14509794	-0.75405098	1.4381093	-0.02569691	-0.79277402	1.0980529	-0.25210062	-0.70169397	1.0508846	0.19972537	-0.68296253	0.88180281	-0.28243304	-0.50996876	0.89501955	0.2127406
133	0.528	-0.40826867	0.063282389	-0.13831648	-0.72894752	0.039865499	0.033666344	-0.53772778	0.10092842	-0.14915063	-0.8718982	0.054670923	0.06225942	-0.51861714	0.11888533	-0.067021745	-0.84783372	0.080690097	-0.021157739	-0.59774321	0.072586212	-0.096338349	-0.9202559	0.031062549	0.011227979	-0.46409957	0.48537673	-0.16542276	-0.75356879	0.44206837	0.10891367	-0.44240412	0.46045258	-0.046162534	-0.73827302	0.44415048	-0.021661188	-0.62145994	0.83042674	-0.21136619	-0.70794184	0.85405755	0.16500006	-0.58695383	0.9375806	-0.1371515	-0.62036697	0.94235708	0.10552756	-0.79794164	0.95057585	-0.047881679	-0.65953035	1.4124975	-0.17779265	-0.67673653	1.4050614	0.14511169	-0.74852916	1.4371489	-0.025800928	-0.78925004	1.097958	-0.2521954	-0.69407014	1.0498542	0.19988461	-0.68156176	0.88088617	-0.28372224	-0.50010182	0.89653094	0.2111478
134	0.532	-0.39034526	0.062462751	-0.13680829	-0.72906987	0.039816351	0.03357646	-0.52072778	0.097070763	-0.14880585	-0.87187444	0.054747617	0.062125064	-0.50232359	0.11590086	-0.066594754	-0.84774298	0.080646902	-0.021286536	-0.58015708	0.067637832	-0.096054685	-0.92027289	0.031125265	0.011105819	-0.45776818	0.48380278	-0.16544784	-0.7519917	0.44170609	0.10876933	-0.43621469	0.45927717	-0.046077903	-0.73558438	0.44371215	-0.021730086	-0.61467215	0.82978637	-0.21119062	-0.70410706	0.85324871	0.16471729	-0.58050735	0.93671528	-0.13680371	-0.61576222	0.94138644	0.10581295	-0.79162121	0.94900336	-0.049475553	-0.65381461	1.4113173	-0.17778483	-0.67132542	1.4041622	0.14510468	-0.74299309	1.4361349	-0.025906858	-0.78571704	1.0978465	-0.25228903	-0.6864617	1.0487975	0.20003339	-0.68011137	0.88000365	-0.28502414	-0.49027956	0.89805021	0.20953831
135	0.536	-0.3724778	0.061583213	-0.13531564	-0.72914219	0.039752311	0.033517679	-0.50364369	0.093392933	-0.14850506	-0.87182635	0.054808926	0.06198738	-0.48607235	0.11295144	-0.066353828	-0.84763816	0.080563739	-0.021418465	-0.5624907	0.062943299	-0.095912321	-0.92027959	0.031200814	0.010977936	-0.45153714	0.48206702	-0.16548292	-0.74959098	0.44098302	0.10796727	-0.43033768	0.45789889	-0.04610508	-0.73284343	0.44325053	-0.021831761	-0.60771923	0.82907976	-0.21096952	-0.70027072	0.85242821	0.16445251	-0.57406855	0.93577833	-0.1364633	-0.61112501	0.94038391	0.10609259	-0.78549289	0.94745139	-0.051487266	-0.64808822	1.4100783	-0.17778217	-0.66590695	1.4032189	0.14508152	-0.73743958	1.4350655	-0.02601637	-0.78222949	1.0977151	-0.25250228	-0.67888012	1.0477107	0.20016795	-0.67861295	0.87915449	-0.28634028	-0.48050946	0.89959305	0.20790586
136	0.54	-0.35470231	0.060619356	-0.13385379	-0.72917741	0.039683144	0.03349524	-0.48651642	0.089916962	-0.14829243	-0.87175548	0.054857313	0.061841066	-0.46984642	0.11010974	-0.066239158	-0.84747767	0.080446289	-0.021574961	-0.54479462	0.058517115	-0.095864682	-0.92027557	0.03129156	0.010843761	-0.44537848	0.48017038	-0.16552259	-0.7471318	0.43999113	0.10695471	-0.42469362	0.45632256	-0.046187874	-0.73015784	0.44272733	-0.022025763	-0.60077406	0.82828769	-0.21074619	-0.69639374	0.85156732	0.16416809	-0.56749721	0.93477745	-0.13609726	-0.60646194	0.93934503	0.1063652	-0.77940488	0.94594798	-0.053618741	-0.64236325	1.4087816	-0.17778163	-0.66048313	1.4022456	0.14504291	-0.73186899	1.4339428	-0.026128497	-0.77882609	1.0975667	-0.25294125	-0.671345	1.0465911	0.20029252	-0.67706521	0.8783393	-0.28767151	-0.47080401	0.90116529	0.20624775
137	0.544	-0.33705165	0.05957155	-0.13242135	-0.72921111	0.039601171	0.033496702	-0.4693946	0.086661179	-0.14821002	-0.87167186	0.054900004	0.061693665	-0.45360196	0.10748556	-0.066142767	-0.847274	0.080314634	-0.021758935	-0.5271789	0.054416744	-0.095898717	-0.92026193	0.031398219	0.010704682	-0.43930076	0.47812427	-0.16556093	-0.74487401	0.43899161	0.10621191	-0.41922034	0.45454694	-0.046297291	-0.72745788	0.44213663	-0.022287922	-0.59396029	0.82739326	-0.2105413	-0.69244956	0.85065717	0.16382669	-0.56064389	0.93372379	-0.13566311	-0.60177084	0.93826519	0.10662522	-0.7733208	0.94453538	-0.055364223	-0.63664028	1.4074367	-0.17778346	-0.65505057	1.4012476	0.14498995	-0.72628899	1.4327682	-0.026243867	-0.77549813	1.0974029	-0.2535818	-0.6638812	1.0454378	0.20041929	-0.67546713	0.87755899	-0.28902057	-0.46117498	0.90275325	0.204568
138	0.548	-0.31954905	0.058457622	-0.13101637	-0.72925476	0.039509498	0.033503085	-0.45230627	0.083648433	-0.14825624	-0.87158735	0.054945163	0.061566573	-0.43733247	0.1051311	-0.066027744	-0.84705094	0.080193994	-0.021956357	-0.50971261	0.050695031	-0.096031871	-0.92024013	0.031520903	0.010560591	-0.43332899	0.47594559	-0.16558951	-0.74257021	0.4381462	0.10582539	-0.41389805	0.45257025	-0.046432191	-0.72465986	0.44147658	-0.022578486	-0.58728152	0.82639269	-0.21033258	-0.6884864	0.84972685	0.16346895	-0.55354751	0.93262058	-0.13516823	-0.59704651	0.93714441	0.1068648	-0.76728611	0.94322868	-0.056473502	-0.63090135	1.406054	-0.1777913	-0.64960869	1.4002153	0.14492226	-0.72070655	1.4315381	-0.026365997	-0.77218847	1.0972218	-0.25424878	-0.65650795	1.0442497	0.20055835	-0.67381589	0.87681379	-0.29039107	-0.4516232	0.90433091	0.20287932
139	0.552	-0.30220881	0.057302823	-0.12965038	-0.72928733	0.039417903	0.033496226	-0.43528046	0.080897544	-0.1484024	-0.87149373	0.055004428	0.061478969	-0.42110338	0.10299874	-0.06597049	-0.84681485	0.080098529	-0.022151425	-0.49240852	0.047363304	-0.096279903	-0.92021087	0.03166266	0.010406362	-0.42745158	0.47364868	-0.16560959	-0.73993726	0.43742336	0.10562955	-0.40870816	0.45039854	-0.046584222	-0.72175117	0.44073719	-0.022872701	-0.58069484	0.82528838	-0.21009275	-0.68465463	0.84883381	0.1632611	-0.54640457	0.93146087	-0.13466325	-0.59229342	0.93598779	0.10708291	-0.76129128	0.94195551	-0.057203776	-0.62511077	1.4046353	-0.1778066	-0.64415082	1.3991319	0.14483349	-0.7151197	1.4302491	-0.026497808	-0.76884979	1.0970215	-0.25479005	-0.64922817	1.0430243	0.20070798	-0.67210368	0.87610533	-0.29178741	-0.44214231	0.90588223	0.20120107
